<?xml version="1.0" encoding="utf-8"?>
<!-- Generator: Adobe Illustrator 16.0.2, SVG Export Plug-In . SVG Version: 6.00 Build 0)  -->
<!DOCTYPE svg PUBLIC "-//W3C//DTD SVG 1.1//EN" "http://www.w3.org/Graphics/SVG/1.1/DTD/svg11.dtd">
<svg version="1.1" id="Layer_1" xmlns="http://www.w3.org/2000/svg" xmlns:xlink="http://www.w3.org/1999/xlink" x="0px" y="0px"
	 width="481.123px" height="131.155px" viewBox="65.613 330.505 481.123 131.155"
	 enable-background="new 65.613 330.505 481.123 131.155" xml:space="preserve">
<g id="Brand_Name_outline">
	<g>
		<path fill="#002F78" d="M221.57,374.272h18.34c8.096,0,14.87,6.279,14.87,14.375c0,5.783-3.139,10.409-7.766,12.392l10.74,16.854
			h-10.905l-9.088-14.54h-0.165h-6.278v14.54h-9.583v-43.62H221.57z M238.918,394.926c3.8,0,6.278-2.313,6.278-6.114
			c0-3.47-2.313-5.783-5.452-5.783h-8.427v11.896H238.918z"/>
		<path fill="#002F78" d="M262.545,374.272h29.906v8.757h-20.157v8.261h18.835v8.592h-18.835v9.418h20.653v8.757h-30.402V374.272
			L262.545,374.272z"/>
		<path fill="#002F78" d="M299.886,374.272h18.506c6.609,0,14.705,5.288,14.705,14.871c0,8.922-7.601,14.871-14.705,14.871h-8.757
			v14.044h-9.749V374.272z M317.731,395.091c1.982,0,5.618-1.322,5.618-5.948c0-4.792-3.636-5.948-5.618-5.948h-8.261v12.062h8.261
			V395.091z"/>
		<path fill="#002F78" d="M337.723,374.272h9.749v25.114c0,7.602,3.635,10.575,8.922,10.575s8.922-2.974,8.922-10.575v-25.114h9.749
			v26.106c0,12.392-8.427,18.34-18.506,18.34c-10.244,0-18.67-5.948-18.67-18.34v-26.106H337.723z"/>
		<path fill="#002F78" d="M382.169,374.272h17.349c6.939,0,12.558,4.626,12.558,11.236c0,4.13-2.148,7.6-5.618,8.757
			c5.783,0.991,8.758,5.453,8.758,10.905c0,7.436-5.618,12.888-13.384,12.888h-19.827v-43.785H382.169z M398.031,391.622
			c2.809,0,4.626-1.983,4.626-4.626s-1.982-4.461-4.626-4.461h-6.444v9.087H398.031z M400.014,409.631
			c3.305,0,5.617-2.313,5.617-5.287c0-2.974-2.313-5.121-5.782-5.121h-8.262v10.408H400.014L400.014,409.631z"/>
		<path fill="#002F78" d="M420.997,374.272h9.749v35.028h17.018v8.757h-26.767V374.272z"/>
		<path fill="#002F78" d="M452.556,374.272h9.748v43.785h-9.748V374.272z"/>
		<path fill="#002F78" d="M491.715,373.447c7.104,0,13.383,3.139,17.679,8.096l-6.609,5.618c-2.809-3.139-6.773-4.957-11.069-4.957
			c-7.766,0-13.88,5.948-13.88,13.879c0,7.931,6.114,13.714,13.88,13.714c4.461,0,8.426-1.818,11.235-4.957l6.608,5.617
			c-4.296,5.123-10.739,8.262-17.844,8.262c-13.054,0-23.463-9.418-23.463-22.471C468.087,383.03,478.661,373.447,491.715,373.447z"
			/>
	</g>
</g>
<g id="A_CRH-ABOITIZ_Company_outline">
	<g>
		<path fill="#002F78" d="M240.736,454.407h-3.14l-1.652-4.13h-7.931l-1.652,4.13h-2.974l7.435-16.853h2.81L240.736,454.407z
			 M231.979,441.024l-2.81,6.774h5.783L231.979,441.024z"/>
		<path fill="#002F78" d="M429.094,454.573c-4.957,0-8.592-3.801-8.592-8.592c0-4.792,3.635-8.757,8.592-8.757
			c3.139,0,4.957,1.156,6.608,2.644l-1.817,2.147c-1.321-1.321-2.809-2.147-4.626-2.147c-3.14,0-5.452,2.644-5.452,5.948
			c0,3.304,2.313,5.947,5.452,5.947c1.982,0,3.305-0.826,4.792-2.147l1.817,1.982C434.051,453.416,432.233,454.573,429.094,454.573z
			"/>
		<path fill="#002F78" d="M446.938,454.573c-5.121,0-8.757-3.966-8.757-8.592c0-4.792,3.636-8.757,8.757-8.757
			c5.122,0,8.758,3.965,8.758,8.592C455.696,450.442,452.06,454.573,446.938,454.573z M446.938,440.033
			c-3.304,0-5.617,2.644-5.617,5.948c0,3.304,2.313,5.948,5.783,5.948c3.305,0,5.617-2.645,5.617-5.948
			C452.721,442.677,450.242,440.033,446.938,440.033z"/>
		<path fill="#002F78" d="M467.592,450.277L467.592,450.277l-5.288-7.932v11.896h-2.974v-16.688h3.14l5.122,7.931l5.121-7.931h3.14
			v16.688h-2.974v-12.062L467.592,450.277z"/>
		<path fill="#002F78" d="M486.427,448.955h-3.304v5.453h-2.975V437.72h6.609c3.965,0,6.443,2.148,6.443,5.618
			C493.036,446.973,490.063,448.955,486.427,448.955z M486.427,440.198h-3.47v6.113h3.47c2.148,0,3.636-1.156,3.636-2.974
			C490.063,441.354,488.74,440.198,486.427,440.198z"/>
		<path fill="#002F78" d="M510.385,454.407h-3.139l-1.652-4.13h-7.932l-1.651,4.13h-2.975l7.436-16.853h2.809L510.385,454.407z
			 M501.628,441.024l-2.809,6.774h5.782L501.628,441.024z"/>
		<path fill="#002F78" d="M524.925,437.555h2.975v16.688h-2.479l-9.253-11.896v11.896h-2.974v-16.688h2.809l8.922,11.565V437.555z"
			/>
		<path fill="#002F78" d="M540.126,454.407h-2.975v-6.608l-6.608-10.079h3.47l4.626,7.436l4.792-7.436h3.305l-6.609,10.079V454.407z
			"/>
	</g>
	<g>
		<g>
			<path fill="#002F78" d="M256.597,454.738c-4.957,0-8.592-3.801-8.592-8.592c0-4.957,3.801-8.757,8.757-8.757
				c2.81,0,4.792,0.826,6.609,2.644l0.165,0.165l-2.479,2.974l-0.165-0.165c-1.321-1.321-2.644-1.817-4.131-1.817
				c-2.644,0-4.626,2.148-4.626,4.957c0,2.974,1.982,5.122,4.626,5.122c1.818,0,2.975-0.661,4.131-1.817l0.165-0.165l2.479,2.644
				l-0.165,0.165C261.389,453.747,259.406,454.738,256.597,454.738z"/>
		</g>
		<g>
			<path fill="#002F78" d="M281.546,454.407h-4.626l0,0l-3.47-5.122h-2.644v5.288h-3.966V437.72h7.766
				c2.148,0,3.801,0.661,4.957,1.652c0.991,0.991,1.487,2.313,1.487,3.966c0,2.479-1.157,4.296-3.47,5.287L281.546,454.407z
				 M270.642,445.485h3.47c1.652,0,2.644-0.826,2.644-2.147c0-1.487-0.991-2.148-2.644-2.148h-3.47V445.485z"/>
		</g>
		<g>
			<path fill="#002F78" d="M298.895,454.407h-3.965v-6.608h-6.278v6.608h-3.966v-16.853h3.966v6.443h6.278v-6.443h3.965V454.407z"/>
		</g>
		<g>
			<path fill="#002F78" d="M309.304,448.79h-7.601v-3.8h7.601V448.79z"/>
		</g>
		<g>
			<path fill="#002F78" d="M327.645,454.407h-4.131l-1.487-3.635h-6.774l-1.486,3.635h-4.131l7.27-17.018h3.635v0.165
				L327.645,454.407z M316.74,447.138h3.8l-1.982-4.626L316.74,447.138z"/>
		</g>
		<g>
			<path fill="#002F78" d="M337.723,454.407h-8.096v-16.853h7.766c1.982,0,3.47,0.495,4.461,1.487
				c0.826,0.826,1.157,1.817,1.157,2.974c0,1.652-0.661,2.809-1.983,3.635c1.983,0.826,2.809,2.148,2.809,4.131
				C344.167,452.756,341.854,454.407,337.723,454.407z M333.593,450.772h4.13c1.652,0,2.313-0.495,2.313-1.652
				c0-1.156-0.826-1.652-2.479-1.652h-3.965V450.772z M333.593,444.164h3.139c1.652,0,2.479-0.496,2.479-1.487
				c0-1.322-1.321-1.487-2.147-1.487h-3.47V444.164L333.593,444.164z"/>
		</g>
		<g>
			<path fill="#002F78" d="M354.906,454.738c-5.122,0-8.922-3.801-8.922-8.592c0-4.957,3.966-8.757,8.922-8.757
				c5.122,0,8.923,3.8,8.923,8.592C363.829,450.772,360.029,454.738,354.906,454.738z M354.906,441.024
				c-2.644,0-4.791,2.147-4.791,4.957c0,2.974,2.147,5.122,4.791,5.122c2.645,0,4.792-2.148,4.792-4.957
				C359.698,443.172,357.716,441.024,354.906,441.024z"/>
		</g>
		<g>
			<path fill="#002F78" d="M370.934,454.407h-3.966v-16.853h3.966V454.407z"/>
		</g>
		<g>
			<path fill="#002F78" d="M382.5,454.407h-3.966v-13.218h-4.957v-3.8h14.044v3.8h-4.956v13.218H382.5z"/>
		</g>
		<g>
			<path fill="#002F78" d="M394.066,454.407H390.1v-16.853h3.966V454.407z"/>
		</g>
		<g>
			<path fill="#002F78" d="M411.414,454.407H397.37v-2.974l0,0l8.757-10.244h-8.592v-3.635h13.879v2.974l0,0l-8.757,10.244h8.922
				v3.635H411.414z"/>
		</g>
	</g>
</g>
<g id="Brand_Mark">
	<g>
		<path fill="#00A3E0" d="M184.393,357.75c-21.148-29.41-62.125-36.02-91.535-14.87c-29.41,21.149-36.02,62.125-14.871,91.535
			c21.149,29.41,62.126,36.02,91.536,14.871C198.933,428.137,205.542,386.995,184.393,357.75z M105.91,414.258
			c-10.079-13.879-6.939-33.376,6.939-43.455c13.879-10.079,33.376-6.939,43.455,7.105c10.078,13.879,6.939,33.375-7.105,43.455
			C135.486,431.276,115.99,428.137,105.91,414.258z"/>
		<polygon fill="#FFFFFF" points="156.47,377.743 164.236,357.75 184.393,357.75 176.462,377.743 		"/>
		<path fill="#002F78" d="M77.987,434.415c21.149,29.41,62.126,36.02,91.536,14.87c29.41-21.148,36.02-62.125,14.87-91.535
			l-7.931,20.158c0,0,9.253,22.636-5.948,44.611c-15.201,21.976-41.802,25.28-60.473,14.54
			c-18.341-10.739-28.75-34.201-17.515-56.012c11.731-22.801,45.603-30.071,63.778-3.139l7.931-20.158
			c-10.574-10.079-24.619-16.688-39.654-16.522c-33.376,0.33-57.83,26.602-57.664,59.812
			C67.247,412.771,70.882,424.502,77.987,434.415z"/>
	</g>
</g>
</svg>
